Coordinates
version=1
nRows=7
nColumns=40
inDegrees=yes

Units are S.I. units (second, meters, Newtons, ...)
If the header above contains a line with 'inDegrees', this indicates whether rotational values are in degrees (yes) or radians (no).

endheader
time	pelvis_tilt	pelvis_list	pelvis_rotation	pelvis_tx	pelvis_ty	pelvis_tz	hip_flexion_r	hip_adduction_r	hip_rotation_r	knee_angle_r	knee_angle_r_beta	ankle_angle_r	subtalar_angle_r	mtp_angle_r	hip_flexion_l	hip_adduction_l	hip_rotation_l	knee_angle_l	knee_angle_l_beta	ankle_angle_l	subtalar_angle_l	mtp_angle_l	lumbar_extension	lumbar_bending	lumbar_rotation	arm_flex_r	arm_add_r	arm_rot_r	elbow_flex_r	pro_sup_r	wrist_flex_r	wrist_dev_r	arm_flex_l	arm_add_l	arm_rot_l	elbow_flex_l	pro_sup_l	wrist_flex_l	wrist_dev_l
      0.00000000	     16.59903301	      4.78703715	      6.35373154	      0.06833683	      0.96220479	     -0.31521872	      9.21149078	     -5.77779554	    -10.77315582	     13.93752407	      0.24325568	    -13.99883385	      0.00000000	      0.00000000	    -29.20825176	      5.45809293	      4.05941808	      8.70815413	      0.15198596	     -2.59315807	      0.00000000	      0.00000000	    -31.49571751	     -2.86190720	    -10.62758912	     -1.66728229	    -15.39704736	      6.03011927	     39.44782626	     78.20541760	      0.00000000	      0.00000000	     12.90213931	    -29.01008754	     25.51507055	     58.13276867	     72.58879608	      0.00000000	      0.00000000
      0.00400000	     16.34740063	      4.89798679	      6.32738090	      0.07315072	      0.96074778	     -0.31525938	      9.75735792	     -5.81292482	    -10.57657923	     13.30061619	      0.23213955	    -13.96729157	      0.00000000	      0.00000000	    -29.19870391	      5.57192917	      4.08831486	      8.88015542	      0.15498795	     -2.42754914	      0.00000000	      0.00000000	    -31.31008053	     -2.97521355	    -10.73500624	     -1.61314777	    -15.32467808	      5.99966381	     39.37531967	     78.18476806	      0.00000000	      0.00000000	     13.04649221	    -29.04964027	     25.52968729	     58.16855959	     72.60351112	      0.00000000	      0.00000000
      0.00800000	     16.09969854	      4.96474707	      6.31110754	      0.07812685	      0.95928293	     -0.31513825	     10.20466594	     -5.74920104	    -10.11362257	     12.52421365	      0.21858876	    -13.97669263	      0.00000000	      0.00000000	    -29.17959488	      5.61593351	      4.15077854	      9.10669194	      0.15894176	     -2.15873969	      0.00000000	      0.00000000	    -31.10081662	     -3.06904060	    -10.82063757	     -1.55943919	    -15.21235162	      5.83553395	     39.21386650	     78.11470425	      0.00000000	      0.00000000	     13.16397884	    -29.12712500	     25.54501225	     58.24514598	     72.63609139	      0.00000000	      0.00000000
      0.01200000	     15.99320855	      4.99060648	      6.20634323	      0.08281033	      0.95807349	     -0.31484265	     10.40930254	     -5.57290683	     -9.37469792	     11.51869722	      0.20103919	    -14.36206957	      0.00000000	      0.00000000	    -29.24087640	      5.65204572	      4.07264357	      9.42472309	      0.16449245	     -1.93103049	      0.00000000	      0.00000000	    -31.07707208	     -3.13746738	    -10.78549190	     -1.42709391	    -15.14228743	      5.80306807	     39.06175816	     77.98830523	      0.00000000	      0.00000000	     13.42460276	    -29.19235822	     25.64668012	     58.22031852	     72.69094279	      0.00000000	      0.00000000
      0.01600000	     15.87600651	      4.96423683	      6.18453915	      0.08774945	      0.95680536	     -0.31462518	     10.68129415	     -5.39069584	     -8.96255069	     10.73287565	      0.18732402	    -14.49478623	      0.00000000	      0.00000000	    -29.26609497	      5.57953135	      3.90805935	      9.80063737	      0.17105339	     -1.72230776	      0.00000000	      0.00000000	    -31.01378789	     -3.11101611	    -10.77658686	     -1.38163179	    -15.07169944	      5.62489231	     38.96812896	     77.81443152	      0.00000000	      0.00000000	     13.62096174	    -29.23200847	     25.71982523	     58.22418471	     72.71115624	      0.00000000	      0.00000000
      0.02000000	     15.69954203	      5.02451173	      6.14171484	      0.09275923	      0.95544260	     -0.31464942	     11.18081209	     -5.37480949	     -8.99107353	     10.38739145	      0.18129418	    -14.38719167	      0.00000000	      0.00000000	    -29.33605689	      5.61910639	      3.83336569	      9.95114183	      0.17368019	     -1.65212677	      0.00000000	      0.00000000	    -30.89195953	     -3.15965694	    -10.83686143	     -1.34907320	    -15.05384377	      5.60060178	     38.99954022	     77.79261218	      0.00000000	      0.00000000	     13.73344279	    -29.25795811	     25.71252111	     58.27074551	     72.71882879	      0.00000000	      0.00000000
      0.02400000	     15.53681811	      5.07794838	      6.16862183	      0.09804083	      0.95411295	     -0.31451547	     11.33767105	     -5.29344153	     -8.17685580	      9.47334874	      0.16534113	    -14.57088786	      0.00000000	      0.00000000	    -29.30631780	      5.60985306	      3.83574611	     10.45955191	      0.18255362	     -1.17499086	      0.00000000	      0.00000000	    -30.74381787	     -3.20700145	    -10.88461343	     -1.42571824	    -14.97215583	      5.42336423	     38.98969977	     77.62423804	      0.00000000	      0.00000000	     13.85924443	    -29.30556449	     25.79766041	     58.25547903	     72.79659608	      0.00000000	      0.00000000
